{
    "accessors" : [
        {
            "bufferView" : 0, 
            "componentType" : 5123, 
            "count" : 948, 
            "max" : [
                575
            ], 
            "min" : [
                0
            ], 
            "type" : "SCALAR"
        }, 
        {
            "bufferView" : 1, 
            "componentType" : 5126, 
            "count" : 576, 
            "max" : [
                1.0, 
                4.0, 
                1.0
            ], 
            "min" : [
                -0.9999999403953552, 
                0.0, 
                -1.0
            ], 
            "type" : "VEC3"
        }, 
        {
            "bufferView" : 2, 
            "componentType" : 5126, 
            "count" : 576, 
            "max" : [
                0.9951847195625305, 
                1.0, 
                0.9951847195625305
            ], 
            "min" : [
                -0.9951847791671753, 
                -1.0, 
                -0.9951847791671753
            ], 
            "type" : "VEC3"
        }, 
        {
            "bufferView" : 3, 
            "componentType" : 5126, 
            "count" : 576, 
            "max" : [
                1.0, 
                1.0
            ], 
            "min" : [
                0.0, 
                0.0
            ], 
            "type" : "VEC2"
        }, 
        {
            "bufferView" : 4, 
            "componentType" : 5123, 
            "count" : 576, 
            "max" : [
                2, 
                3, 
                3, 
                3
            ], 
            "min" : [
                0, 
                1, 
                0, 
                0
            ], 
            "type" : "VEC4"
        }, 
        {
            "bufferView" : 5, 
            "componentType" : 5126, 
            "count" : 576, 
            "max" : [
                0.8181231617927551, 
                0.8097003102302551, 
                0.48327913880348206, 
                0.04723023995757103
            ], 
            "min" : [
                0.04288048669695854, 
                0.16839830577373505, 
                0.0, 
                0.0
            ], 
            "type" : "VEC4"
        }, 
        {
            "bufferView" : 6, 
            "componentType" : 5126, 
            "count" : 4, 
            "max" : [
                1.0, 
                0.0, 
                0.0, 
                0.0, 
                0.0, 
                1.0, 
                0.0, 
                0.0, 
                0.0, 
                0.0, 
                1.0, 
                0.0, 
                0.0, 
                0.0, 
                0.0, 
                1.0
            ], 
            "min" : [
                1.0, 
                0.0, 
                0.0, 
                0.0, 
                0.0, 
                1.0, 
                0.0, 
                0.0, 
                0.0, 
                0.0, 
                1.0, 
                0.0, 
                0.0, 
                -3.0, 
                0.0, 
                1.0
            ], 
            "type" : "MAT4"
        }, 
        {
            "bufferView" : 7, 
            "componentType" : 5126, 
            "count" : 121, 
            "max" : [
                2.0
            ], 
            "min" : [
                0.0
            ], 
            "type" : "SCALAR"
        }, 
        {
            "bufferView" : 8, 
            "componentType" : 5126, 
            "count" : 121, 
            "max" : [
                0.2588190734386444, 
                0.0, 
                0.0, 
                1.0
            ], 
            "min" : [
                0.0, 
                0.0, 
                0.0, 
                0.965925931930542
            ], 
            "type" : "VEC4"
        }, 
        {
            "bufferView" : 9, 
            "componentType" : 5126, 
            "count" : 121, 
            "max" : [
                2.0
            ], 
            "min" : [
                0.0
            ], 
            "type" : "SCALAR"
        }, 
        {
            "bufferView" : 10, 
            "componentType" : 5126, 
            "count" : 121, 
            "max" : [
                0.13052621483802795, 
                0.0, 
                0.0, 
                1.0
            ], 
            "min" : [
                0.0, 
                0.0, 
                0.0, 
                0.9914449453353882
            ], 
            "type" : "VEC4"
        }
    ], 
    "animations" : [
        {
            "channels" : [
                {
                    "sampler" : 0, 
                    "target" : {
                        "node" : 6, 
                        "path" : "rotation"
                    }
                }, 
                {
                    "sampler" : 1, 
                    "target" : {
                        "node" : 7, 
                        "path" : "rotation"
                    }
                }
            ], 
            "samplers" : [
                {
                    "input" : 7, 
                    "interpolation" : "LINEAR", 
                    "output" : 8
                }, 
                {
                    "input" : 9, 
                    "interpolation" : "LINEAR", 
                    "output" : 10
                }
            ]
        }
    ], 
    "asset" : {
        "generator" : "Khronos Blender glTF 2.0 exporter", 
        "version" : "2.0"
    }, 
    "bufferViews" : [
        {
            "buffer" : 0, 
            "byteLength" : 1896, 
            "byteOffset" : 0, 
            "target" : 34963
        }, 
        {
            "buffer" : 0, 
            "byteLength" : 6912, 
            "byteOffset" : 1896, 
            "target" : 34962
        }, 
        {
            "buffer" : 0, 
            "byteLength" : 6912, 
            "byteOffset" : 8808, 
            "target" : 34962
        }, 
        {
            "buffer" : 0, 
            "byteLength" : 4608, 
            "byteOffset" : 15720, 
            "target" : 34962
        }, 
        {
            "buffer" : 0, 
            "byteLength" : 4608, 
            "byteOffset" : 20328, 
            "target" : 34962
        }, 
        {
            "buffer" : 0, 
            "byteLength" : 9216, 
            "byteOffset" : 24936, 
            "target" : 34962
        }, 
        {
            "buffer" : 0, 
            "byteLength" : 256, 
            "byteOffset" : 34152
        }, 
        {
            "buffer" : 0, 
            "byteLength" : 484, 
            "byteOffset" : 34408
        }, 
        {
            "buffer" : 0, 
            "byteLength" : 1936, 
            "byteOffset" : 34892
        }, 
        {
            "buffer" : 0, 
            "byteLength" : 484, 
            "byteOffset" : 36828
        }, 
        {
            "buffer" : 0, 
            "byteLength" : 1936, 
            "byteOffset" : 37312
        }
    ], 
    "buffers" : [
        {
            "byteLength" : 39248, 
            "uri" : "03_skinned_cylinder.bin"
        }
    ], 
    "cameras" : [
        {
            "name" : "Camera", 
            "perspective" : {
                "aspectRatio" : 1.7777777777777777, 
                "yfov" : 0.5033799372418416, 
                "zfar" : 100.0, 
                "znear" : 0.10000000149011612
            }, 
            "type" : "perspective"
        }
    ], 
    "materials" : [
        {
            "name" : "Cylinder", 
            "pbrMetallicRoughness" : {}
        }
    ], 
    "meshes" : [
        {
            "name" : "Cylinder", 
            "primitives" : [
                {
                    "attributes" : {
                        "JOINTS_0" : 4, 
                        "NORMAL" : 2, 
                        "POSITION" : 1, 
                        "TEXCOORD_0" : 3, 
                        "WEIGHTS_0" : 5
                    }, 
                    "indices" : 0, 
                    "material" : 0
                }
            ]
        }
    ], 
    "nodes" : [
        {
            "camera" : 0, 
            "name" : "Correction_Camera", 
            "rotation" : [
                -0.7071067690849304, 
                -0.0, 
                0.0, 
                0.7071067690849304
            ]
        }, 
        {
            "children" : [
                0
            ], 
            "name" : "Camera", 
            "rotation" : [
                0.48170700669288635, 
                0.3342514932155609, 
                -0.21292175352573395, 
                0.7816000580787659
            ], 
            "scale" : [
                1.0, 
                1.0, 
                0.9999999403953552
            ], 
            "translation" : [
                11.02981948852539, 
                9.933013916015625, 
                9.816827774047852
            ]
        }, 
        {
            "mesh" : 0, 
            "name" : "Cylinder", 
            "skin" : 0
        }, 
        {
            "children" : [
                2, 
                4
            ], 
            "name" : "Root"
        }, 
        {
            "children" : [
                5
            ], 
            "name" : "Root_Joint_One"
        }, 
        {
            "children" : [
                6
            ], 
            "name" : "Root_Joint_Two", 
            "translation" : [
                0.0, 
                1.0, 
                0.0
            ]
        }, 
        {
            "children" : [
                7
            ], 
            "name" : "Root_Joint_Three", 
            "rotation" : [
                0.2588190734386444, 
                0.0, 
                0.0, 
                0.965925931930542
            ], 
            "translation" : [
                0.0, 
                1.0, 
                0.0
            ]
        }, 
        {
            "name" : "Root_Joint_Four", 
            "rotation" : [
                0.13052621483802795, 
                0.0, 
                0.0, 
                0.9914449453353882
            ], 
            "scale" : [
                1.0, 
                0.9999999403953552, 
                0.9999999403953552
            ], 
            "translation" : [
                0.0, 
                1.0, 
                0.0
            ]
        }
    ], 
    "scene" : 0, 
    "scenes" : [
        {
            "name" : "Scene", 
            "nodes" : [
                3, 
                1
            ]
        }
    ], 
    "skins" : [
        {
            "inverseBindMatrices" : 6, 
            "joints" : [
                4, 
                5, 
                6, 
                7
            ], 
            "skeleton" : 3
        }
    ]
}
